# Toyota Sprinter Trueno AE86 - Escala Corrigida com Rodas 3D

v -2.0000 0.4000 5.0000
v 2.0000 0.4000 5.0000
v -2.0000 0.4000 -5.0000
v 2.0000 0.4000 -5.0000
v -2.0000 1.2000 4.8000
v 2.0000 1.2000 4.8000
v -2.0000 1.4000 2.4000
v 2.0000 1.4000 2.4000
v -2.0000 1.4000 -4.8000
v 2.0000 1.4000 -4.8000
v -1.6000 2.4000 0.4000
v 1.6000 2.4000 0.4000
v -1.6000 2.4000 -1.6000
v 1.6000 2.4000 -1.6000
v -2.3000 0.0000 3.4000
v -1.7000 0.0000 3.4000
v -1.7000 1.2000 3.4000
v -2.3000 1.2000 3.4000
v -2.3000 0.0000 2.2000
v -1.7000 0.0000 2.2000
v -1.7000 1.2000 2.2000
v -2.3000 1.2000 2.2000
v 1.7000 0.0000 3.4000
v 2.3000 0.0000 3.4000
v 2.3000 1.2000 3.4000
v 1.7000 1.2000 3.4000
v 1.7000 0.0000 2.2000
v 2.3000 0.0000 2.2000
v 2.3000 1.2000 2.2000
v 1.7000 1.2000 2.2000
v -2.3000 0.0000 -2.2000
v -1.7000 0.0000 -2.2000
v -1.7000 1.2000 -2.2000
v -2.3000 1.2000 -2.2000
v -2.3000 0.0000 -3.4000
v -1.7000 0.0000 -3.4000
v -1.7000 1.2000 -3.4000
v -2.3000 1.2000 -3.4000
v 1.7000 0.0000 -2.2000
v 2.3000 0.0000 -2.2000
v 2.3000 1.2000 -2.2000
v 1.7000 1.2000 -2.2000
v 1.7000 0.0000 -3.4000
v 2.3000 0.0000 -3.4000
v 2.3000 1.2000 -3.4000
v 1.7000 1.2000 -3.4000

f 6 7 5
f 6 8 7
f 2 5 1
f 2 6 5
f 8 11 7
f 8 12 11
f 12 13 11
f 12 14 13
f 14 9 13
f 14 10 9
f 10 3 9
f 10 4 3
f 5 7 1
f 7 3 1
f 7 9 3
f 7 11 9
f 11 13 9
f 6 2 8
f 8 2 4
f 8 4 10
f 8 10 12
f 12 10 14
f 1 3 2
f 2 3 4
f 15 16 17
f 15 17 18
f 19 21 20
f 19 22 21
f 15 18 22
f 15 22 19
f 16 20 21
f 16 21 17
f 18 17 21
f 18 21 22
f 15 19 20
f 15 20 16
f 23 24 25
f 23 25 26
f 27 29 28
f 27 30 29
f 23 26 30
f 23 30 27
f 24 28 29
f 24 29 25
f 26 25 29
f 26 29 30
f 23 27 28
f 23 28 24
f 31 32 33
f 31 33 34
f 35 37 36
f 35 38 37
f 31 34 38
f 31 38 35
f 32 36 37
f 32 37 33
f 34 33 37
f 34 37 38
f 31 35 36
f 31 36 32
f 39 40 41
f 39 41 42
f 43 45 44
f 43 46 45
f 39 42 46
f 39 46 43
f 40 44 45
f 40 45 41
f 42 41 45
f 42 45 46
f 39 43 44
f 39 44 40
