# Detailed Super Mushroom (Mario) 3D Shell for Half-Edge Structure Testing
# Features: Smooth 3D Cap, Distinct White Spot Regions, Cream Tapered Stem, and Hollowed Eyes.
# This file contains distinct boundaries (open base and hollowed eyes) to test boundary loop detection.

v -2.1167 -3.0000 0.8944
v -1.5875 -3.0000 1.0392
v -1.0583 -3.0000 1.1314
v -0.5292 -3.0000 1.1832
v 0.0000 -3.0000 1.2000
v 0.5292 -3.0000 1.1832
v 1.0583 -3.0000 1.1314
v 1.5875 -3.0000 1.0392
v 2.1167 -3.0000 0.8944
v -1.7647 -2.2000 0.8944
v -1.3235 -2.2000 1.0392
v -0.8823 -2.2000 1.1314
v -0.4412 -2.2000 1.1832
v 0.0000 -2.2000 1.2000
v 0.4412 -2.2000 1.1832
v 0.8823 -2.2000 1.1314
v 1.3235 -2.2000 1.0392
v 1.7647 -2.2000 0.8944
v -1.6667 -1.5000 0.8944
v -1.2500 -1.5000 1.0392
v -0.8333 -1.5000 1.1314
v -0.4167 -1.5000 1.1832
v 0.0000 -1.5000 1.2000
v 0.4167 -1.5000 1.1832
v 0.8333 -1.5000 1.1314
v 1.2500 -1.5000 1.0392
v 1.6667 -1.5000 0.8944
v -1.7647 -0.8000 0.8944
v -1.3235 -0.8000 1.0392
v -0.8823 -0.8000 1.1314
v -0.4412 -0.8000 1.1832
v 0.0000 -0.8000 1.2000
v 0.4412 -0.8000 1.1832
v 0.8823 -0.8000 1.1314
v 1.3235 -0.8000 1.0392
v 1.7647 -0.8000 0.8944
v -5.2000 0.0000 0.0000
v -4.3333 0.0000 1.3474
v -3.4667 0.0000 1.8168
v -2.6000 0.0000 2.1109
v -1.7333 0.0000 2.2981
v -0.8667 0.0000 2.4034
v 0.0000 0.0000 2.4375
v 0.8667 0.0000 2.4034
v 1.7333 0.0000 2.2981
v 2.6000 0.0000 2.1109
v 3.4667 0.0000 1.8168
v 4.3333 0.0000 1.3474
v 5.2000 0.0000 0.0000
v -5.5000 0.6000 0.0000
v -4.5833 0.6000 1.3765
v -3.6667 0.6000 1.8560
v -2.7500 0.6000 2.1565
v -1.8333 0.6000 2.3477
v -0.9167 0.6000 2.4553
v 0.0000 0.6000 2.4901
v 0.9167 0.6000 2.4553
v 1.8333 0.6000 2.3477
v 2.7500 0.6000 2.1565
v 3.6667 0.6000 1.8560
v 4.5833 0.6000 1.3765
v 5.5000 0.6000 0.0000
v -4.8189 1.2000 0.0000
v -4.0158 1.2000 1.3806
v -3.2126 1.2000 1.8615
v -2.4095 1.2000 2.1629
v -1.6063 1.2000 2.3547
v -0.8032 1.2000 2.4626
v 0.0000 1.2000 2.4975
v 0.8032 1.2000 2.4626
v 1.6063 1.2000 2.3547
v 2.4095 1.2000 2.1629
v 3.2126 1.2000 1.8615
v 4.0158 1.2000 1.3806
v 4.8189 1.2000 0.0000
v -4.5826 1.8000 0.0000
v -3.8188 1.8000 1.3599
v -3.0551 1.8000 1.8337
v -2.2913 1.8000 2.1306
v -1.5275 1.8000 2.3195
v -0.7638 1.8000 2.4258
v 0.0000 1.8000 2.4602
v 0.7638 1.8000 2.4258
v 1.5275 1.8000 2.3195
v 2.2913 1.8000 2.1306
v 3.0551 1.8000 1.8337
v 3.8188 1.8000 1.3599
v 4.5826 1.8000 0.0000
v -4.2295 2.4000 0.0000
v -3.5246 2.4000 1.3133
v -2.8197 2.4000 1.7709
v -2.1148 2.4000 2.0576
v -1.4098 2.4000 2.2401
v -0.7049 2.4000 2.3427
v 0.0000 2.4000 2.3759
v 0.7049 2.4000 2.3427
v 1.4098 2.4000 2.2401
v 2.1148 2.4000 2.0576
v 2.8197 2.4000 1.7709
v 3.5246 2.4000 1.3133
v 4.2295 2.4000 0.0000
v -3.7268 3.0000 0.0000
v -3.1056 3.0000 1.2379
v -2.4845 3.0000 1.6692
v -1.8634 3.0000 1.9395
v -1.2423 3.0000 2.1114
v -0.6211 3.0000 2.2082
v 0.0000 3.0000 2.2395
v 0.6211 3.0000 2.2082
v 1.2423 3.0000 2.1114
v 1.8634 3.0000 1.9395
v 2.4845 3.0000 1.6692
v 3.1056 3.0000 1.2379
v 3.7268 3.0000 0.0000
v -3.0000 3.6000 0.0000
v -2.5000 3.6000 1.1279
v -2.0000 3.6000 1.5209
v -1.5000 3.6000 1.7671
v -1.0000 3.6000 1.9238
v -0.5000 3.6000 2.0119
v 0.0000 3.6000 2.0405
v 0.5000 3.6000 2.0119
v 1.0000 3.6000 1.9238
v 1.5000 3.6000 1.7671
v 2.0000 3.6000 1.5209
v 2.5000 3.6000 1.1279
v 3.0000 3.6000 0.0000
v -2.0608 4.1000 0.0000
v -1.7173 4.1000 1.0017
v -1.3739 4.1000 1.3507
v -1.0304 4.1000 1.5694
v -0.6869 4.1000 1.7085
v -0.3435 4.1000 1.7868
v 0.0000 4.1000 1.8122
v 0.3435 4.1000 1.7868
v 0.6869 4.1000 1.7085
v 1.0304 4.1000 1.5694
v 1.3739 4.1000 1.3507
v 1.7173 4.1000 1.0017
v 2.0608 4.1000 0.0000
v -0.1581 4.5000 0.0000
v -0.1318 4.5000 0.8686
v -0.1054 4.5000 1.1712
v -0.0791 4.5000 1.3608
v -0.0527 4.5000 1.4815
v -0.0264 4.5000 1.5494
v 0.0000 4.5000 1.5713
v 0.0264 4.5000 1.5494
v 0.0527 4.5000 1.4815
v 0.0791 4.5000 1.3608
v 0.1054 4.5000 1.1712
v 0.1318 4.5000 0.8686
v 0.1581 4.5000 0.0000

# --- FACES (TRIANGULATED AND ORIENTED ANTI-CLOCKWISE) ---
f 1 2 11
f 1 11 10
f 2 3 12
f 2 12 11
f 3 4 13
f 3 13 12
f 4 5 14
f 4 14 13
f 5 6 15
f 5 15 14
f 6 7 16
f 6 16 15
f 7 8 17
f 7 17 16
f 8 9 18
f 8 18 17
f 10 11 20
f 10 20 19
f 11 12 21
f 11 21 20
f 12 13 22
f 12 22 21
f 13 14 23
f 13 23 22
f 14 15 24
f 14 24 23
f 15 16 25
f 15 25 24
f 16 17 26
f 16 26 25
f 17 18 27
f 17 27 26
f 19 20 29
f 19 29 28
f 20 21 30
f 20 30 29
# Eye slot boundary at row 2, col 4
f 22 23 32
f 22 32 31
f 23 24 33
f 23 33 32
# Eye slot boundary at row 2, col 7
f 25 26 35
f 25 35 34
f 26 27 36
f 26 36 35
f 28 29 40
f 28 40 39
f 29 30 41
f 29 41 40
# Eye slot boundary at row 3, col 4
f 31 32 43
f 31 43 42
f 32 33 44
f 32 44 43
# Eye slot boundary at row 3, col 7
f 34 35 46
f 34 46 45
f 35 36 47
f 35 47 46
f 37 38 51
f 37 51 50
f 38 39 52
f 38 52 51
f 39 40 53
f 39 53 52
f 40 41 54
f 40 54 53
f 41 42 55
f 41 55 54
f 42 43 56
f 42 56 55
f 43 44 57
f 43 57 56
f 44 45 58
f 44 58 57
f 45 46 59
f 45 59 58
f 46 47 60
f 46 60 59
f 47 48 61
f 47 61 60
f 48 49 62
f 48 62 61
f 50 51 64
f 50 64 63
f 51 52 65
f 51 65 64
f 52 53 66
f 52 66 65
f 53 54 67
f 53 67 66
f 54 55 68
f 54 68 67
f 55 56 69
f 55 69 68
f 56 57 70
f 56 70 69
f 57 58 71
f 57 71 70
f 58 59 72
f 58 72 71
f 59 60 73
f 59 73 72
f 60 61 74
f 60 74 73
f 61 62 75
f 61 75 74
f 63 64 77
f 63 77 76
f 64 65 78
f 64 78 77
f 65 66 79
f 65 79 78
f 66 67 80
f 66 80 79
f 67 68 81
f 67 81 80
f 68 69 82
f 68 82 81
f 69 70 83
f 69 83 82
f 70 71 84
f 70 84 83
f 71 72 85
f 71 85 84
f 72 73 86
f 72 86 85
f 73 74 87
f 73 87 86
f 74 75 88
f 74 88 87
f 76 77 90
f 76 90 89
f 77 78 91
f 77 91 90
f 78 79 92
f 78 92 91
f 79 80 93
f 79 93 92
f 80 81 94
f 80 94 93
f 81 82 95
f 81 95 94
f 82 83 96
f 82 96 95
f 83 84 97
f 83 97 96
f 84 85 98
f 84 98 97
f 85 86 99
f 85 99 98
f 86 87 100
f 86 100 99
f 87 88 101
f 87 101 100
f 89 90 103
f 89 103 102
f 90 91 104
f 90 104 103
f 91 92 105
f 91 105 104
f 92 93 106
f 92 106 105
f 93 94 107
f 93 107 106
f 94 95 108
f 94 108 107
f 95 96 109
f 95 109 108
f 96 97 110
f 96 110 109
f 97 98 111
f 97 111 110
f 98 99 112
f 98 112 111
f 99 100 113
f 99 113 112
f 100 101 114
f 100 114 113
f 102 103 116
f 102 116 115
f 103 104 117
f 103 117 116
f 104 105 118
f 104 118 117
f 105 106 119
f 105 119 118
f 106 107 120
f 106 120 119
f 107 108 121
f 107 121 120
f 108 109 122
f 108 122 121
f 109 110 123
f 109 123 122
f 110 111 124
f 110 124 123
f 111 112 125
f 111 125 124
f 112 113 126
f 112 126 125
f 113 114 127
f 113 127 126
f 115 116 129
f 115 129 128
f 116 117 130
f 116 130 129
f 117 118 131
f 117 131 130
f 118 119 132
f 118 132 131
f 119 120 133
f 119 133 132
f 120 121 134
f 120 134 133
f 121 122 135
f 121 135 134
f 122 123 136
f 122 136 135
f 123 124 137
f 123 137 136
f 124 125 138
f 124 138 137
f 125 126 139
f 125 139 138
f 126 127 140
f 126 140 139
f 128 129 142
f 128 142 141
f 129 130 143
f 129 143 142
f 130 131 144
f 130 144 143
f 131 132 145
f 131 145 144
f 132 133 146
f 132 146 145
f 133 134 147
f 133 147 146
f 134 135 148
f 134 148 147
f 135 136 149
f 135 149 148
f 136 137 150
f 136 150 149
f 137 138 151
f 137 151 150
f 138 139 152
f 138 152 151
f 139 140 153
f 139 153 152
