v 0.0000 2.0000 0.5000
v 0.5000 1.8000 0.6000
v 0.8000 1.5000 0.7000
v 0.9000 1.0000 0.8000
v 0.8000 0.5000 0.8000
v 0.5000 0.2000 0.7000
v 0.0000 0.1000 0.6000
v -0.5000 0.2000 0.7000
v -0.8000 0.5000 0.8000
v -0.9000 1.0000 0.8000
v -0.8000 1.5000 0.7000
v -0.5000 1.8000 0.6000
v 0.3000 -0.2000 0.5000
v 0.4000 -0.6000 0.4000
v 0.2000 -1.0000 0.3000
v 0.0000 -1.2000 0.3000
v -0.2000 -1.0000 0.3000
v -0.4000 -0.6000 0.4000
v -0.3000 -0.2000 0.5000

v 0.0000 2.2000 0.4000
v 0.7000 2.0000 0.5000
v 1.2000 1.6000 0.6000
v 1.4000 1.1000 0.7000
v -0.7000 2.0000 0.5000
v -1.2000 1.6000 0.6000
v -1.4000 1.1000 0.7000
v 2.5000 0.9000 0.8000
v 2.0000 0.8500 0.8500
v 1.0000 0.8000 0.9000
v 0.0000 0.7800 0.9000
v -1.0000 0.8000 0.9000
v -2.0000 0.8500 0.8500
v -2.5000 0.9000 0.8000

v 0.3500 1.1000 0.8100
v 0.6500 1.1000 0.8100
v 0.6500 0.8000 0.8100
v 0.3500 0.8000 0.8100
v -0.3500 1.1000 0.8100
v -0.6500 1.1000 0.8100
v -0.6500 0.8000 0.8100
v -0.3500 0.8000 0.8100

v 3.0000 3.0000 -0.5000
v 3.3000 2.7000 -0.5000
v 2.7000 3.3000 -0.5000
v -3.0000 3.0000 -0.5000
v -2.7000 3.3000 -0.5000
v -3.3000 2.7000 -0.5000
v -3.0000 -3.0000 -0.5000
v -3.3000 -2.7000 -0.5000
v -2.7000 -3.3000 -0.5000
v 3.0000 -3.0000 -0.5000
v 2.7000 -3.3000 -0.5000
v 3.3000 -2.7000 -0.5000

f 1 2 3
f 1 3 11
f 11 3 10
f 3 4 10
f 4 5 10
f 10 5 9
f 9 5 6
f 9 6 8
f 8 6 7
f 6 13 7
f 7 13 19
f 13 14 19
f 19 14 18
f 14 15 18
f 18 15 17
f 15 16 17

f 20 21 22
f 20 22 24
f 20 24 23
f 22 27 24
f 22 26 27
f 22 25 26
f 27 28 29
f 27 29 30
f 27 30 31
f 27 31 32
f 27 32 33

f 4 34 35
f 4 35 5
f 5 35 36
f 5 36 6
f 6 36 37
f 6 37 4
f 10 38 39
f 10 39 9
f 9 39 40
f 9 40 8
f 8 40 41
f 8 41 10


f 42 43 44
f 45 46 47
f 48 49 50
f 51 52 53
f 42 44 45
f 46 49 52